<svg xmlns="http://www.w3.org/2000/svg" aria-hidden="true" style="width:0;height:0;position:absolute;overflow:hidden"><defs><symbol id="icon-Group" viewBox="0 0 55 32"><path d="M3.698 5.191a.652.652 0 0 0 .888-.214c.371-.616.776-.949 1.147-.949.5 0 .931.582 1.138.924a.65.65 0 0 0 .888.214.636.636 0 0 0 .215-.881c-.785-1.274-1.655-1.548-2.25-1.548s-1.474.274-2.259 1.574a.656.656 0 0 0 .233.881zm4.431 9.843c.172-.308.052-.701-.259-.872s-.707-.051-.879.257c-.388.71-.845 1.12-1.25 1.12s-.871-.419-1.259-1.146c-.172-.308-.56-.428-.879-.265s-.431.556-.267.872c.638 1.172 1.491 1.822 2.405 1.822.638 0 1.578-.308 2.388-1.787zm-2.388-1.172c1.345 0 2.422-1.539 2.552-3.66a.637.637 0 0 0-.603-.676.638.638 0 0 0-.681.599c-.086 1.445-.733 2.454-1.259 2.454-.517 0-1.267-1.086-1.267-2.796s.75-2.796 1.267-2.796c.259 0 .552.248.793.676.172.308.569.419.879.248s.422-.564.25-.872c-.483-.864-1.164-1.334-1.922-1.334-1.44 0-2.56 1.787-2.56 4.079-.009 2.283 1.112 4.079 2.552 4.079z"/><path d="M49.431 19.557c3.215 0 5.741-4.293 5.741-9.783C55.172 4.292 52.646 0 49.431 0H5.741C2.525 0 0 4.293 0 9.774c0 5.473 2.517 9.766 5.724 9.783h3.991l2.06 2.044-6.293 6.243c-.362.359-.569.847-.569 1.36s.198 1.001.569 1.36l.879.872c.362.359.853.564 1.371.564s1.009-.197 1.371-.564l6.293-6.243 6.293 6.243c.362.359.853.564 1.371.564s1.009-.197 1.371-.564l.879-.872c.362-.359.569-.847.569-1.36s-.198-1.001-.569-1.36l-6.293-6.243 2.06-2.044h12.207l2.06 2.044-6.293 6.243c-.362.359-.569.847-.569 1.36s.198 1.001.569 1.36l.879.872c.362.359.853.564 1.371.564s1.009-.197 1.371-.564l6.293-6.243 6.293 6.243c.362.359.853.564 1.371.564s1.009-.197 1.371-.564l.879-.872c.362-.359.569-.847.569-1.36s-.198-1.001-.569-1.36l-6.293-6.243 2.06-2.044h4.785zM1.293 9.774c0-4.601 2.034-8.492 4.448-8.492h.009c2.405.009 4.44 3.891 4.44 8.492 0 4.609-2.035 8.5-4.448 8.5s-4.448-3.891-4.448-8.5zm16.483 5.875h-4.672c-.353 0-.647.291-.647.641s.293.641.647.641h3.379l-1.353 1.343H8.622c.948-.915 1.724-2.283 2.224-3.934h8.259l-1.328 1.308zM8.19 30.529a.672.672 0 0 1-.914 0l-.879-.872a.637.637 0 0 1 0-.906l6.293-6.243 1.793 1.779L8.19 30.53zm16.388-1.325a.635.635 0 0 1-.19.453l-.879.872a.672.672 0 0 1-.914 0L11.543 19.557h3.586l9.267 9.193c.112.12.181.282.181.453zM16.31 18.916l6.284-6.234a.654.654 0 0 1 .914 0l.879.872c.25.248.25.658 0 .906l-6.293 6.243-1.785-1.787zm8-2.565h5.509c.353 0 .647-.291.647-.641s-.293-.641-.647-.641h-4.267c.207-.316.319-.676.319-1.06 0-.513-.198-1.001-.569-1.36l-.879-.872a1.947 1.947 0 0 0-2.741 0l-1.293 1.283h-9.233a16.564 16.564 0 0 0 .233-5.063H22.51c.69 0 1.284-.487 1.397-1.154.267-1.522 1.707-2.668 3.362-2.668.983 0 1.914.393 2.56 1.077a.646.646 0 0 0 .914.026.633.633 0 0 0 .026-.906c-.888-.932-2.164-1.471-3.491-1.479h-.017c-2.31.009-4.259 1.574-4.629 3.737-.009.043-.052.086-.121.086h-11.31c-.44-2.326-1.362-4.25-2.586-5.43h40.819c.991 0 1.914.667 2.664 1.762h-9.853c-.353 0-.647.291-.647.641s.293.641.647.641h10.569c.664 1.488 1.069 3.395 1.069 5.447 0 .462-.026.906-.06 1.351h-3.095c-.353 0-.647.291-.647.641s.293.641.647.641h2.922c-.595 3.361-2.284 5.866-4.215 5.866h-3.491l2.94-2.916a1.908 1.908 0 0 0 0-2.719l-.879-.872a1.947 1.947 0 0 0-2.741 0l-3.319 3.292h-7.69c-.353 0-.647.291-.647.641s.293.641.647.641h6.397l-1.94 1.924H22.376l1.94-1.916zm7.449 14.178a.672.672 0 0 1-.914 0l-.879-.872a.637.637 0 0 1 0-.906l6.293-6.243 1.793 1.779-6.293 6.243zm16.388-1.325a.635.635 0 0 1-.19.453l-.879.872a.672.672 0 0 1-.914 0L35.112 19.557h3.586l9.267 9.193c.121.12.181.282.181.453zm-8.268-10.288 6.293-6.243a.654.654 0 0 1 .914 0l.879.872c.25.248.25.658 0 .906l-6.293 6.243-1.793-1.779z"/><path d="M19.31 9.886h-5.336c-.353 0-.647.291-.647.641s.293.641.647.641h5.336c.353 0 .647-.291.647-.641s-.293-.641-.647-.641zm32.337-2.532A.648.648 0 0 0 51 6.713H32.052c-.69 0-1.285.487-1.397 1.154-.267 1.522-1.716 2.668-3.379 2.668-.353 0-.647.291-.647.641s.293.641.647.641c2.319 0 4.276-1.573 4.647-3.737.009-.051.06-.086.121-.086h18.948a.65.65 0 0 0 .655-.641zm-22.423 0c0-1.026-.871-1.864-1.94-1.864s-1.94.838-1.94 1.864c0 1.026.871 1.864 1.94 1.864 1.06-.009 1.94-.838 1.94-1.864zm-2.586 0c0-.316.284-.582.646-.582s.647.257.647.582-.293.582-.647.582c-.362-.009-.646-.265-.646-.582zm-6.293-4.198h-7.241c-.353 0-.647.291-.647.641s.293.641.647.641h7.241c.353 0 .647-.291.647-.641s-.293-.641-.647-.641zm22.034 7.97h-8.353c-.353 0-.647.291-.647.641s.293.641.647.641h8.353c.353 0 .647-.291.647-.641s-.293-.641-.647-.641zm-7.793-6.799h3.991c.353 0 .647-.291.647-.641s-.293-.641-.647-.641h-3.991c-.353 0-.647.291-.647.641s.284.641.647.641z"/><path fill="none" stroke="#fff" stroke-width=".441" d="M3.698 5.191a.652.652 0 0 0 .888-.214c.371-.616.776-.949 1.147-.949.5 0 .931.582 1.138.924a.65.65 0 0 0 .888.214.636.636 0 0 0 .215-.881c-.785-1.274-1.655-1.548-2.25-1.548s-1.474.274-2.259 1.574a.656.656 0 0 0 .233.881zm4.431 9.843c.172-.308.052-.701-.259-.872s-.707-.051-.879.257c-.388.71-.845 1.12-1.25 1.12s-.871-.419-1.259-1.146c-.172-.308-.56-.428-.879-.265s-.431.556-.267.872c.638 1.172 1.491 1.822 2.405 1.822.638 0 1.578-.308 2.388-1.787zm-2.388-1.172c1.345 0 2.422-1.539 2.552-3.66a.637.637 0 0 0-.603-.676.638.638 0 0 0-.681.599c-.086 1.445-.733 2.454-1.259 2.454-.517 0-1.267-1.086-1.267-2.796s.75-2.796 1.267-2.796c.259 0 .552.248.793.676.172.308.569.419.879.248s.422-.564.25-.872c-.483-.864-1.164-1.334-1.922-1.334-1.44 0-2.56 1.787-2.56 4.079-.009 2.283 1.112 4.079 2.552 4.079z" style="stroke:var(--color1,#fff)"/><path fill="none" stroke="#fff" stroke-width=".441" d="M49.431 19.557c3.215 0 5.741-4.293 5.741-9.783C55.172 4.292 52.646 0 49.431 0H5.741C2.525 0 0 4.293 0 9.774c0 5.473 2.517 9.766 5.724 9.783h3.991l2.06 2.044-6.293 6.243c-.362.359-.569.847-.569 1.36s.198 1.001.569 1.36l.879.872c.362.359.853.564 1.371.564s1.009-.197 1.371-.564l6.293-6.243 6.293 6.243c.362.359.853.564 1.371.564s1.009-.197 1.371-.564l.879-.872c.362-.359.569-.847.569-1.36s-.198-1.001-.569-1.36l-6.293-6.243 2.06-2.044h12.207l2.06 2.044-6.293 6.243c-.362.359-.569.847-.569 1.36s.198 1.001.569 1.36l.879.872c.362.359.853.564 1.371.564s1.009-.197 1.371-.564l6.293-6.243 6.293 6.243c.362.359.853.564 1.371.564s1.009-.197 1.371-.564l.879-.872c.362-.359.569-.847.569-1.36s-.198-1.001-.569-1.36l-6.293-6.243 2.06-2.044h4.785zM1.293 9.774c0-4.601 2.034-8.492 4.448-8.492h.009c2.405.009 4.44 3.891 4.44 8.492 0 4.609-2.035 8.5-4.448 8.5s-4.448-3.891-4.448-8.5zm16.483 5.875h-4.672c-.353 0-.647.291-.647.641s.293.641.647.641h3.379l-1.353 1.343H8.622c.948-.915 1.724-2.283 2.224-3.934h8.259l-1.328 1.308zM8.19 30.529a.672.672 0 0 1-.914 0l-.879-.872a.637.637 0 0 1 0-.906l6.293-6.243 1.793 1.779L8.19 30.53zm16.388-1.325a.635.635 0 0 1-.19.453l-.879.872a.672.672 0 0 1-.914 0L11.543 19.557h3.586l9.267 9.193c.112.12.181.282.181.453zM16.31 18.916l6.284-6.234a.654.654 0 0 1 .914 0l.879.872c.25.248.25.658 0 .906l-6.293 6.243-1.785-1.787zm8-2.565h5.509c.353 0 .647-.291.647-.641s-.293-.641-.647-.641h-4.267c.207-.316.319-.676.319-1.06 0-.513-.198-1.001-.569-1.36l-.879-.872a1.947 1.947 0 0 0-2.741 0l-1.293 1.283h-9.233a16.564 16.564 0 0 0 .233-5.063H22.51c.69 0 1.284-.487 1.397-1.154.267-1.522 1.707-2.668 3.362-2.668.983 0 1.914.393 2.56 1.077a.646.646 0 0 0 .914.026.633.633 0 0 0 .026-.906c-.888-.932-2.164-1.471-3.491-1.479h-.017c-2.31.009-4.259 1.574-4.629 3.737-.009.043-.052.086-.121.086h-11.31c-.44-2.326-1.362-4.25-2.586-5.43h40.819c.991 0 1.914.667 2.664 1.762h-9.853c-.353 0-.647.291-.647.641s.293.641.647.641h10.569c.664 1.488 1.069 3.395 1.069 5.447 0 .462-.026.906-.06 1.351h-3.095c-.353 0-.647.291-.647.641s.293.641.647.641h2.922c-.595 3.361-2.284 5.866-4.215 5.866h-3.491l2.94-2.916a1.908 1.908 0 0 0 0-2.719l-.879-.872a1.947 1.947 0 0 0-2.741 0l-3.319 3.292h-7.69c-.353 0-.647.291-.647.641s.293.641.647.641h6.397l-1.94 1.924H22.376l1.94-1.916zm7.449 14.178a.672.672 0 0 1-.914 0l-.879-.872a.637.637 0 0 1 0-.906l6.293-6.243 1.793 1.779-6.293 6.243zm16.388-1.325a.635.635 0 0 1-.19.453l-.879.872a.672.672 0 0 1-.914 0L35.112 19.557h3.586l9.267 9.193c.121.12.181.282.181.453zm-8.268-10.288 6.293-6.243a.654.654 0 0 1 .914 0l.879.872c.25.248.25.658 0 .906l-6.293 6.243-1.793-1.779z" style="stroke:var(--color1,#fff)"/><path fill="none" stroke="#fff" stroke-width=".441" d="M19.31 9.886h-5.336c-.353 0-.647.291-.647.641s.293.641.647.641h5.336c.353 0 .647-.291.647-.641s-.293-.641-.647-.641zm32.337-2.532A.648.648 0 0 0 51 6.713H32.052c-.69 0-1.285.487-1.397 1.154-.267 1.522-1.716 2.668-3.379 2.668-.353 0-.647.291-.647.641s.293.641.647.641c2.319 0 4.276-1.573 4.647-3.737.009-.051.06-.086.121-.086h18.948a.65.65 0 0 0 .655-.641zm-22.423 0c0-1.026-.871-1.864-1.94-1.864s-1.94.838-1.94 1.864c0 1.026.871 1.864 1.94 1.864 1.06-.009 1.94-.838 1.94-1.864zm-2.586 0c0-.316.284-.582.646-.582s.647.257.647.582-.293.582-.647.582c-.362-.009-.646-.265-.646-.582zm-6.293-4.198h-7.241c-.353 0-.647.291-.647.641s.293.641.647.641h7.241c.353 0 .647-.291.647-.641s-.293-.641-.647-.641zm22.034 7.97h-8.353c-.353 0-.647.291-.647.641s.293.641.647.641h8.353c.353 0 .647-.291.647-.641s-.293-.641-.647-.641zm-7.793-6.799h3.991c.353 0 .647-.291.647-.641s-.293-.641-.647-.641h-3.991c-.353 0-.647.291-.647.641s.284.641.647.641z" style="stroke:var(--color1,#fff)"/></symbol><symbol id="icon-Group-1" viewBox="0 0 46 32"><path d="M16.764 17.769a.372.372 0 0 1-.052.519l-7.55 6.219a.36.36 0 0 1-.514-.053.372.372 0 0 1 .052-.519l7.55-6.219a.363.363 0 0 1 .514.052zm28.688-2.347c.631.854.725 2.018.24 2.964L44.5 20.713a4.23 4.23 0 0 1 .106 2.641l-1.205 4.204a2.348 2.348 0 0 1-2.384 1.713l-8.488-.448a3.729 3.729 0 0 1-2.275-.937l-1.167-1.038h-9.138l-3.972 4.069a3.61 3.61 0 0 1-3.032 1.052l-8.489-1.127c-1.366-.181-2.333-1.451-2.155-2.83l.561-4.356-1.071-.315a2.494 2.494 0 0 1-1.785-2.572l.223-3.467a4.326 4.326 0 0 1 .943-2.437l4.495-5.616a2.477 2.477 0 0 1 2.127-.925l1.548.122 2.362-5.639A4.584 4.584 0 0 1 13.306.818a4.545 4.545 0 0 1 2.862-.81l8.587.514a4.486 4.486 0 0 1 3.226 1.674l3.724 4.644 7.446 1.659a3.925 3.925 0 0 1 2.303 1.503l4 5.421zm-.585.44-1.633-2.212-6.025-.072 3.336 2.962 4.613 1.238c.22-.64.116-1.366-.291-1.917zm-5.84-6.636H27.174c-.202 0-.365-.165-.365-.369s.163-.369.365-.369h8.549L27.99 6.764a4.464 4.464 0 0 0-2.785.271L22.409 8.26c.559.603.754 1.48.483 2.272a2.547 2.547 0 0 1 2.638 1.126l1.601 2.495 4.2-2.545a3.436 3.436 0 0 1 4.083.374l.955.848 6.317.075-1.819-2.465a3.198 3.198 0 0 0-1.84-1.215zM14.453 1.024l1.982 1.695c.404.346.919.551 1.448.579l3.492.182a3.16 3.16 0 0 1 2.253 1.128l1.421 1.697a5.196 5.196 0 0 1 2.144-.382l-2.077-2.5c-.13-.156-.109-.388.045-.519s.385-.11.514.046l2.595 3.123 2.291.511-3.148-3.925a3.757 3.757 0 0 0-2.702-1.401L16.124.744a3.79 3.79 0 0 0-1.671.281zm-4.344 7.482 4.775.375 1.219-.939-2.539-2.758c-.137-.149-.129-.382.019-.521s.379-.13.516.019l2.587 2.811.688-.53a2.405 2.405 0 0 1 2.679-.178l1.68.971.841-.369L21.56 5.96c-.118-.165-.08-.396.084-.514s.392-.081.509.085l1.106 1.556 1.087-.476-1.277-1.526a2.431 2.431 0 0 0-1.733-.867l-3.492-.182a3.162 3.162 0 0 1-1.882-.753l-2.203-1.885-.039.026a3.848 3.848 0 0 0-1.345 1.67l-2.267 5.412zm-7.904 6.241 4.902.126 2.563-1.974-3.244-.116c-.202-.007-.359-.178-.352-.381s.175-.362.378-.355l4.132.148 3.429-2.642-6.276-.493a1.75 1.75 0 0 0-1.502.653l-4.03 5.035zm.752 8.17.427-3.318H1.996c-.202 0-.365-.165-.365-.369s.163-.369.365-.369h1.486c.15-.878.63-1.682 1.333-2.224l1.365-1.051-4.548-.117a3.589 3.589 0 0 0-.675 1.881l-.223 3.467a1.762 1.762 0 0 0 1.261 1.817l.962.283zm3.154 7.402L18.72 19.707a3.68 3.68 0 0 0 1.289-2.523l.177-2.342a4.857 4.857 0 0 1 .612-2.015l1.287-2.273c.41-.725.16-1.652-.557-2.066L19.69 7.425a1.684 1.684 0 0 0-1.873.125L5.259 17.226a2.844 2.844 0 0 0-1.074 1.876l-.676 5.247c.425-.865.982-1.737 1.703-2.434 2.171-2.096 7.261-4.415 7.476-4.513.184-.083.4 0 .483.185s0 .404-.184.487c-.052.023-5.191 2.365-7.271 4.373-1.982 1.914-2.653 5.447-2.693 5.666a1.789 1.789 0 0 0 1.527 2l1.56.207zm20.821-11.674a2.39 2.39 0 0 0 .3-2.976l-1.765-2.75-.291 2.501a5.42 5.42 0 0 1-1.693 3.347l-4.466 4.147a.362.362 0 0 1-.516-.022.37.37 0 0 1 .022-.521l4.466-4.147a4.685 4.685 0 0 0 1.462-2.89l.393-3.377a1.812 1.812 0 0 0-1.88-.684l-.517.125-1.015 1.794a4.11 4.11 0 0 0-.518 1.706l-.177 2.342a4.42 4.42 0 0 1-1.549 3.033L7.096 30.45l2.386.317 5.823-5.407c.148-.138.379-.128.516.022s.127.383-.022.521l-5.374 4.99 2.614.347a2.868 2.868 0 0 0 2.417-.839L26.93 18.646zm1.327 7.466-4.063-3.613-3.526 3.613h7.589zm14.406 1.347c-.199-.57-1.164-3.187-2.565-4.717-1.475-1.611-10.232-7.572-11.645-8.529l-.928.562.317.494a3.13 3.13 0 0 1-.393 3.894l-1.334 1.366 5.468 4.626a.37.37 0 0 1-.235.651.359.359 0 0 1-.234-.086l-5.513-4.664-.895.917 6.028 5.36a3.003 3.003 0 0 0 1.831.754l7.451.393c-.18-.618-.597-1.612-1.522-2.353-1.523-1.22-9.656-4.745-9.738-4.78-.185-.08-.271-.297-.192-.484s.294-.274.479-.194c.338.146 8.305 3.6 9.904 4.881 1.209.968 1.671 2.3 1.834 2.971l.271.014a1.615 1.615 0 0 0 1.609-1.077zm1.026-3.563-4.278-3.997c-.148-.138-.157-.371-.02-.521s.368-.158.516-.02l4.008 3.745a3.491 3.491 0 0 0-1.039-3.507l-7.947-7.057c-.9-.8-2.196-.918-3.224-.295l-.461.279 5.309 4.188a.37.37 0 0 1 .063.517.363.363 0 0 1-.513.064l-5.53-4.362-1.428.865c2.067 1.403 10.02 6.843 11.489 8.448 1.095 1.195 1.916 2.941 2.368 4.05l.686-2.396zm.403-3.995.74-1.446-3.059-.821 1.584 1.407c.286.254.532.545.735.86z"/></symbol><symbol id="icon-Group-2" viewBox="0 0 32 32"><path stroke-width=".432" d="M31.567 6.351V3.387a.495.495 0 0 0-.02-.138c-.002-.008-.007-.015-.01-.023a.479.479 0 0 0-.049-.102.26.26 0 0 0-.03-.036.302.302 0 0 0-.105-.099.457.457 0 0 0-.073-.044c-.005 0-.01-.007-.015-.009l-.041-.01a.41.41 0 0 0-.049-.018L18.844.442a.485.485 0 0 0-.444.135L.15 18.827a.453.453 0 0 0-.089.128l-.013.032a.491.491 0 0 0-.04.178v2.971a.492.492 0 0 0 .394.483l2.384.477-2.641 2.638a.504.504 0 0 0-.06.09.504.504 0 0 0-.04.062.496.496 0 0 0-.044.197v2.959a.492.492 0 0 0 .394.483l12.331 2.466a.468.468 0 0 0 .274-.024c.018-.007.032-.019.049-.028a.515.515 0 0 0 .089-.049c.006-.005.008-.013.014-.018s.015-.008.022-.015l18.25-18.25a.505.505 0 0 0 .144-.349v-2.959a.501.501 0 0 0-.01-.066.47.47 0 0 0-.073-.204.454.454 0 0 0-.163-.148.496.496 0 0 0-.058-.035.485.485 0 0 0-.063-.016c-.01 0-.018-.01-.029-.012l-2.384-.477 2.636-2.636a.498.498 0 0 0 .144-.351zm-18.905 21.66-1.2-.24c.308-.945.732-1.848 1.263-2.688a.468.468 0 0 0 .274-.024c.018-.007.032-.019.049-.028a.515.515 0 0 0 .089-.049c.006-.005.008-.013.014-.018s.015-.008.022-.015l8.381-8.382a14.279 14.279 0 0 0-.808 3.359l-8.084 8.084zm-.969-3.133a12.947 12.947 0 0 0-1.204 2.699l-4.447-.888c.262-.938.594-1.854.995-2.741l4.656.93zm10.18-22.823-2.318 2.439a34.263 34.263 0 0 0-8.627 16.265l-4.731-.946a71.984 71.984 0 0 1 11.69-15.362l2.661-2.661 1.325.265zm-9.211 19.051-.767-.155a33.275 33.275 0 0 1 8.377-15.777l2.746-2.89 2.088.418-2.646 2.492a18.171 18.171 0 0 0-5.672 11.786l-4.125 4.127zM23.136 5.911l3.157-2.972 3.779.756-12.158 12.16a17.185 17.185 0 0 1 5.222-9.943zm-4.231-4.45.481.099-2.196 2.194A73.011 73.011 0 0 0 5.175 19.609l-3.682-.736L18.905 1.461zM.986 19.777l11.344 2.269v1.953L.986 21.73v-1.953zm5.06 3.971c-.39.891-.715 1.808-.974 2.745l-3.579-.716 2.452-2.45 2.1.42zm-5.06 2.934 11.344 2.269v1.953L.986 28.635v-1.953zm29.594-13.63L13.317 30.315v-1.564L30.58 11.488v1.565zm-.507-2.452-8.124 8.123a10.405 10.405 0 0 1 3.021-5.574l2.976-2.976 2.127.427zm.507-4.453L13.317 23.41v-1.565L30.58 4.582v1.564z"/></symbol><symbol id="icon-Group-3" viewBox="0 0 48 32"><path d="M47.517 10.917c.068-.184-.007-.397-.168-.475L25.964.027a.272.272 0 0 0-.27.02L.176 14.358c-.152.085-.215.292-.149.469a.385.385 0 0 0-.026.122v6.273c0 .146.076.278.193.335l3.098 1.509a.274.274 0 0 0 .122.029c.008 0 .016-.006.025-.006a.315.315 0 0 0 .099-.026c.004-.002.008-.001.011-.003l2.912-1.596a.338.338 0 0 0 .102-.09l2.51 1.17v3.117c0 .18.115.323.264.351l2.325 1.224.006.001a.278.278 0 0 0 .248.001h.001l3.5-1.731.002-.002 2.604 1.216v3.321c0 .153.082.282.197.336l3.361 1.596a.281.281 0 0 0 .12.028.292.292 0 0 0 .137-.036l3.141-1.762c.012-.006.018-.018.029-.025a.31.31 0 0 0 .063-.057c.011-.013.017-.029.026-.044.014-.023.028-.046.037-.074.007-.021.008-.043.011-.066.004-.02.012-.039.012-.062v-3.07l5.701-3.117 3.065 1.37a.31.31 0 0 0 .112.024h.001a.28.28 0 0 0 .128-.033l.006-.001 3.025-1.657c.157-.087.224-.303.149-.484-.009-.022-.025-.038-.036-.057v-2.688l4.558-2.495 3.229 1.146c.03.011.063.015.092.015l.005-.001c.015 0 .03-.005.045-.008.021-.004.042-.008.06-.016l.017-.006c.003-.002.007-.001.01-.003l2.041-1.145a.373.373 0 0 0 .177-.326v-6.276c0-.044-.015-.084-.028-.124l.002-.003zM21.69 24.963l-4.539-2.21L42.184 8.714l4.538 2.21L21.69 24.963zM25.857.762l3.311 1.613L4.195 16.38c-.019.011-.032.027-.047.041L.823 14.803 25.857.763zm3.901 1.9 3.463 1.687-25.033 14.04-3.464-1.687 25.034-14.04zm4.052 1.974 3.252 1.584-25.033 14.039-3.251-1.584L33.81 4.635zm3.843 1.871 3.942 1.92-25.019 14.031-.011.009-3.945-1.921 25.033-14.04zM.629 15.496l20.756 10.107v5.492l-2.734-1.298v-3.222c0-.019-.007-.036-.009-.054.019-.16-.051-.321-.189-.385l-6.534-3.049c-.123-.057-.259-.015-.346.092a.388.388 0 0 0-.096.26v2.9l-1.776-.934v-3.067c.014-.156-.056-.311-.191-.373l-5.968-2.786c-.158-.073-.344.016-.41.201a.4.4 0 0 0-.013.197v2.617L.629 20.98v-5.486H.63zm3.05 6.687v-2.156l2.124.991-2.124 1.165zm8.426 4.171v-2.396l2.492 1.163-2.492 1.233zm21.614-2.165-2.079-.93 2.079-1.137v2.068zm11.152-6.216-2.164-.767 2.164-1.185v1.952zm2.042-.878-1.412.791v-2.439a.382.382 0 0 0-.146-.307.28.28 0 0 0-.304-.02l-8.207 4.492c-.134.073-.196.242-.167.402v2.856l-2.329 1.276v-2.487a.375.375 0 0 0-.125-.282c-.087-.14-.246-.197-.385-.121l-3.115 1.704-.012.006-6.004 3.284a.368.368 0 0 0-.18.328v3.073l-2.512 1.409v-5.469l24.899-13.964v5.469z"/></symbol><symbol id="icon-Group-4" viewBox="0 0 55 32"><path d="M3.091 24.572c-.044-2.44.895-4.151 1.543-4.116.315 0 .675.362.965.968a.467.467 0 1 0 .841-.407c-.462-.968-1.104-1.5-1.806-1.5-1.413 0-2.478 2.139-2.478 4.974-.035.297.153.607.471.601a.468.468 0 0 0 .464-.52zm4.021-.081c-.072-.541.183-1.658-.595-1.634a.469.469 0 0 0-.405.524c.342 2.159-.493 5.167-1.478 5.146-.316 0-.675-.358-.96-.958-.274-.552-1.098-.156-.842.405.457.962 1.098 1.491 1.802 1.491 1.413 0 2.478-2.139 2.478-4.975zm5.92-7.996c1.259 0 2.242-1.676 2.391-4.077a.469.469 0 0 0-.437-.498.459.459 0 0 0-.495.439c-.118 1.912-.85 3.197-1.459 3.197-.698 0-1.479-1.597-1.479-3.736s.781-3.736 1.479-3.736c.342 0 .731.424 1.015 1.108a.467.467 0 1 0 .862-.362c-.452-1.086-1.118-1.684-1.876-1.684-3.199.07-3.197 9.279 0 9.348z"/><path d="M50.365 16.983h-4.07C48.8 13.079 47.496 4.39 42.899 4.312h-13l.72-1.773c.007-.017.017-.031.022-.049.634-2.024-3.501-3.513-4.368-1.612a190.517 190.517 0 0 0-2.103 3.434H13.034C8.407 4.41 7.156 13.1 9.623 16.983H4.634c-6.172.219-6.186 14.792 0 15.017 7.441-.006 45.732 0 45.732 0 6.169-.216 6.188-14.792-.001-15.017zM26.372 7.615l.848-1.554c.286-.547-.514-.986-.819-.452l-.956 1.751c-.71-.313-1.084-.802-1.109-1.459.183-.375 1.145-1.969 2.155-3.604.521.754 1.789 1.279 2.749 1.151l-1.501 3.699c-.115.333-.661.547-1.368.468zM27.911.933c.731-.067 2.015.7 1.848 1.24-.124.343-.791.476-1.553.223C27.04 1.98 26.58.952 27.91.933zM23.632 5.25c-.228.423-.229.497-.229.566-.101 1.57 1.552 2.703 3.118 2.757h12.018c.607-.008.619-.928 0-.939h-9.996c.025-.051.053-.101.072-.156l.905-2.228h13.381c2.024 0 3.733 3.009 3.733 6.57 0 2.007-.543 3.912-1.454 5.162H20.501c-1.035 0-1.979.523-2.745 1.408h-2.433c3.148-2.665 3.146-10.477 0-13.14h8.309zm.601 19.241c0 3.561-1.709 6.57-3.733 6.57s-3.733-3.009-3.733-6.57c0-3.561 1.709-6.57 3.733-6.57s3.733 3.009 3.733 6.57zM13.034 5.25c2.024 0 3.733 3.009 3.733 6.57s-1.709 6.57-3.733 6.57-3.733-3.009-3.733-6.57 1.709-6.57 3.733-6.57zM.901 24.491c0-3.561 1.709-6.57 3.733-6.57s3.733 3.009 3.733 6.57c0 3.561-1.709 6.57-3.733 6.57S.901 28.052.901 24.491zm6.021 6.57c3.148-2.665 3.146-10.477 0-13.14h3.366c.766.885 1.71 1.408 2.745 1.408h4.056c-1.98 3.158-1.576 9.478 1.122 11.732H6.922zm43.443 0H22.788c3.148-2.665 3.146-10.477 0-13.14h27.577c2.024 0 3.733 3.009 3.733 6.57s-1.709 6.57-3.733 6.57z"/><path d="M18.086 25.341c.075.611.985.512.928-.103-.26-1.953.596-4.739 1.487-4.651.718 0 1.521 1.67 1.521 3.905s-.803 3.904-1.521 3.904c-.321 0-.678-.36-.959-.963-.269-.554-1.096-.166-.846.397.45.971 1.091 1.505 1.804 1.505 1.399 0 2.455-2.082 2.455-4.843S21.9 19.649 20.5 19.649c-1.646-.092-2.72 3.125-2.414 5.693zm32.28 2.905h-5.231c-.612.01-.615.928 0 .939h5.231c.611-.01.614-.928 0-.939zm-8.447 0H27.033c-.608.008-.617.928 0 .939h14.886c.608-.008.617-.928 0-.939zm8.446-2.816H37.532c-.609.009-.617.928 0 .939h12.833c.609-.009.617-.928 0-.939zm-23.332.939h6.043c.612-.009.615-.928 0-.939h-6.043c-.612.009-.615.928 0 .939zm24.733-3.755h-4.648a.468.468 0 0 0 0 .938h4.648c.612-.01.615-.928 0-.939zm-24.733.939h4.046c.612-.01.615-.928 0-.939h-4.046c-.612.01-.615.928 0 .939zm16.328-.939h-8.964a.468.468 0 0 0 0 .938h8.964c.61-.009.615-.928 0-.939zm-10.95-1.877h11.311c.61-.009.616-.928 0-.939H32.411c-.61.009-.616.928 0 .939zm11.286-6.57H30.164c-.609.009-.617.928 0 .939h13.533c.609-.009.617-.928 0-.939zm-17.597 0h-5.735c-.612.01-.615.928 0 .939H26.1c.612-.01.615-.928 0-.939zm11.927-2.347h6.124c.612-.009.615-.928 0-.939h-6.124c-.612.009-.615.928 0 .939zm-18.129 0h14.583c.608-.009.617-.928 0-.939H19.898c-.608.009-.617.928 0 .939zm21.177-3.247h1.223c.613-.01.614-.928 0-.939h-1.223c-.613.01-.614.928 0 .939zM11.093 22.047h3.133c.613-.01.614-.928 0-.939h-3.133c-.613.01-.614.928 0 .939zm0 3.285h2.716c.613-.01.614-.928 0-.939h-2.716c-.613.01-.614.928 0 .939zm3.576 2.695h-4.408c-.612.01-.615.928 0 .939h4.408c.612-.01.615-.928 0-.939z"/><path d="M20.967 24.231v-1.147a.468.468 0 1 0-.934 0v1.147c.01.617.923.617.933 0z"/></symbol><symbol id="icon-Rectangle-2411" viewBox="0 0 56 32"><path d="M0 0h56.074L29.908 32H0V0z"/></symbol></defs></svg>